<?xml version="1.0" standalone="no"?>
<!DOCTYPE svg PUBLIC "-//W3C//DTD SVG 20010904//EN"
 "http://www.w3.org/TR/2001/REC-SVG-20010904/DTD/svg10.dtd">
<svg version="1.0" xmlns="http://www.w3.org/2000/svg"
 width="1435.000000pt" height="349.000000pt" viewBox="0 0 1435.000000 349.000000"
 preserveAspectRatio="xMidYMid meet">

<g transform="translate(0.000000,349.000000) scale(0.100000,-0.100000)"
fill="#000000" stroke="none">
<path d="M11185 3100 c-33 -11 -72 -20 -87 -20 -27 0 -28 -1 -28 -61 0 -33
-18 -174 -39 -312 -65 -417 -72 -565 -40 -937 8 -105 10 -284 6 -545 -3 -153
36 -228 130 -254 59 -16 107 2 174 66 73 70 99 123 99 205 0 53 3 65 20 76 20
12 20 12 -1 41 -20 27 -21 38 -16 147 14 309 41 425 109 460 47 25 118 3 118
-37 0 -22 69 -89 93 -89 14 0 17 -10 19 -62 3 -98 4 -109 18 -173 10 -46 10
-70 1 -103 -9 -35 -8 -63 5 -140 26 -162 20 -150 109 -198 89 -48 121 -52 181
-25 52 24 81 54 107 111 17 37 20 61 17 140 -2 52 -3 138 -1 190 2 85 0 99
-19 123 -12 15 -35 34 -51 42 -27 14 -29 19 -23 55 6 35 3 42 -30 76 -35 36
-36 40 -36 110 0 100 -27 169 -95 243 -129 139 -310 174 -474 92 -71 -36 -71
-36 -64 -13 2 11 -2 36 -11 56 -14 35 -14 42 9 114 71 230 96 440 61 514 -18
36 -150 128 -183 127 -10 0 -45 -9 -78 -19z"/>
<path d="M7076 3060 c-53 -47 -59 -92 -51 -343 7 -225 -3 -460 -31 -683 l-16
-131 22 -44 c25 -47 25 -58 0 -354 -5 -60 -9 -162 -10 -225 0 -80 -5 -123 -15
-140 -19 -34 -19 -80 0 -80 8 0 22 -15 31 -32 39 -77 97 -118 169 -118 55 0
95 21 119 61 11 19 25 29 41 29 13 0 25 4 27 10 2 6 24 4 58 -5 110 -29 271
-14 385 36 186 82 403 337 447 527 16 70 13 271 -5 285 -8 7 -26 47 -41 90
-16 42 -45 104 -66 136 -38 58 -120 133 -160 146 -11 4 -20 13 -20 21 0 8 -5
14 -10 14 -6 0 -24 15 -40 34 -17 18 -54 44 -82 57 -46 21 -68 24 -173 24
-110 0 -125 -2 -179 -27 -32 -16 -59 -28 -61 -28 -1 0 -5 64 -8 143 -12 258
-25 369 -50 441 -48 131 -106 186 -195 186 -43 0 -57 -5 -86 -30z m704 -1135
c23 -19 45 -35 48 -35 4 0 16 -12 26 -27 15 -20 19 -40 17 -90 -2 -47 3 -72
15 -90 12 -20 15 -39 11 -78 -10 -97 -42 -132 -156 -175 -67 -26 -108 -27
-194 -5 -91 23 -101 39 -99 154 2 156 49 307 109 349 40 27 51 30 120 31 56 1
65 -2 103 -34z m-430 -869 c0 -3 -4 -8 -10 -11 -5 -3 -10 -1 -10 4 0 6 5 11
10 11 6 0 10 -2 10 -4z"/>
<path d="M681 2878 c-41 -4 -76 -9 -77 -11 -2 -2 5 -35 16 -73 25 -85 38 -240
28 -331 -10 -89 -32 -775 -32 -1023 -1 -234 18 -499 38 -538 18 -36 53 -51
146 -66 84 -13 130 -8 162 20 25 23 57 90 58 122 0 12 9 50 20 83 20 58 25
151 22 381 l0 68 91 -85 c211 -194 290 -241 422 -251 44 -3 108 -14 142 -24
78 -24 125 -14 153 33 35 56 20 122 -37 167 -47 36 -103 111 -103 136 0 20 -5
24 -27 24 -20 0 -36 10 -57 36 -16 20 -92 78 -170 129 -78 51 -147 99 -154
108 -18 21 -16 25 88 252 48 105 98 219 111 255 13 36 27 67 31 68 4 2 8 17 8
33 0 32 3 34 31 19 17 -10 19 -7 19 27 0 29 -3 34 -12 25 -18 -18 -27 -15 -21
8 3 11 8 20 12 20 16 0 71 64 71 81 0 11 19 40 41 64 l42 45 -46 0 c-37 0 -47
4 -52 20 -3 10 -19 30 -36 44 -25 21 -29 32 -29 72 l0 47 -23 -21 c-13 -13
-27 -18 -33 -13 -5 4 -23 11 -40 14 -35 7 -94 -27 -139 -80 -16 -21 -36 -33
-51 -33 -20 0 -24 -5 -24 -31 0 -21 -11 -46 -34 -73 -18 -23 -49 -75 -68 -117
-49 -106 -176 -287 -178 -251 0 6 4 12 8 12 5 0 12 94 15 210 6 194 5 213 -13
263 -20 53 -54 94 -98 116 -35 18 -140 27 -221 19z"/>
<path d="M10435 2640 c-75 -15 -214 -72 -277 -112 -161 -104 -265 -260 -299
-446 -10 -59 -19 -110 -19 -114 0 -5 -10 -8 -22 -8 -21 0 -21 0 -2 -21 13 -14
18 -36 18 -75 0 -30 3 -54 7 -54 3 0 9 -26 12 -57 7 -69 45 -183 83 -253 41
-75 218 -234 348 -313 44 -27 82 -50 84 -52 2 -2 -2 -13 -8 -25 -16 -30 -7
-34 28 -16 16 8 32 12 36 9 3 -4 6 -1 6 5 0 17 37 24 60 12 11 -6 20 -7 20 -3
0 4 31 9 68 10 107 2 188 44 221 114 11 21 16 41 11 44 -4 2 -10 27 -14 54 -5
42 -12 53 -39 70 -18 11 -62 25 -98 30 -181 29 -328 124 -398 258 -6 12 -18
59 -27 105 -9 45 -19 89 -24 98 -5 9 -4 23 1 33 7 12 6 28 -2 51 -10 29 -10
41 4 78 25 63 132 184 238 268 105 84 159 157 159 215 0 49 -15 74 -55 91 -37
15 -59 16 -120 4z"/>
<path d="M5040 2451 c-95 -29 -201 -110 -231 -176 -26 -57 -24 -170 7 -340 13
-77 30 -173 36 -213 l11 -73 -33 -34 -34 -35 48 0 c42 0 47 -2 41 -17 -30 -74
-28 -182 5 -345 31 -150 114 -278 182 -278 37 0 112 71 141 133 34 71 47 142
47 246 0 85 21 178 43 192 5 4 6 23 3 45 -4 22 -7 56 -7 77 1 49 72 231 92
235 8 1 31 -8 50 -21 26 -17 51 -56 106 -162 55 -106 84 -151 121 -185 79 -74
171 -90 249 -45 59 35 82 85 95 204 14 139 12 133 70 160 86 40 105 42 145 15
20 -13 39 -24 44 -24 16 0 77 -114 70 -130 -5 -8 -4 -122 0 -254 10 -294 17
-322 97 -406 l57 -61 113 10 c62 5 115 11 118 13 5 5 26 106 27 131 1 9 5 17
10 17 22 0 -7 320 -48 535 -49 258 -94 362 -204 471 -75 74 -190 113 -295 99
-114 -15 -267 -82 -379 -166 l-51 -38 -45 45 c-64 63 -153 104 -225 104 -43 0
-61 5 -76 20 -15 15 -33 20 -76 20 -57 0 -129 -16 -151 -33 -10 -7 -13 9 -13
77 0 98 -14 142 -55 174 -28 22 -61 26 -105 13z"/>
<path d="M9378 2358 c-16 -18 -38 -42 -49 -54 -12 -12 -19 -32 -18 -50 1 -16
-3 -54 -10 -85 -9 -45 -9 -79 4 -179 25 -209 19 -309 -31 -461 -34 -104 -64
-132 -147 -137 -55 -3 -67 0 -108 26 -47 30 -109 109 -167 212 l-31 55 1 225
c1 244 -2 260 -59 322 l-25 27 21 29 21 30 -23 6 c-12 3 -55 6 -95 6 -40 0
-81 5 -92 12 -16 10 -23 9 -46 -12 -38 -36 -60 -85 -78 -173 -20 -98 -21 -300
-1 -438 14 -94 22 -118 86 -249 90 -185 131 -252 194 -319 84 -90 238 -152
377 -152 67 0 88 5 175 41 64 26 121 59 160 91 l61 50 39 -21 c21 -11 46 -20
55 -20 24 0 99 30 119 47 14 12 18 11 30 -3 12 -15 14 -15 20 7 4 13 7 107 8
209 1 183 -11 318 -46 510 -9 47 -19 130 -23 185 -14 171 -32 205 -142 259
-93 47 -138 48 -180 4z"/>
<path d="M4004 2328 c-28 -4 -84 -21 -125 -38 -41 -17 -108 -44 -150 -60 -85
-34 -150 -84 -170 -131 -7 -18 -30 -48 -52 -68 -97 -88 -195 -405 -185 -604 5
-110 27 -163 101 -243 l50 -55 -22 -23 -22 -23 79 -6 c58 -4 95 -14 143 -37
102 -48 167 -39 304 42 52 31 80 42 115 42 25 1 50 5 56 9 7 4 19 -5 30 -21
32 -49 118 -133 161 -159 30 -17 60 -25 100 -27 32 -1 68 -8 81 -15 19 -10 22
-9 22 8 0 11 4 21 10 23 5 2 12 35 16 74 5 57 3 85 -14 140 -12 39 -23 114
-27 174 -3 58 -10 155 -16 215 -10 104 -9 115 14 195 48 163 44 296 -10 360
-19 24 -33 30 -63 30 -34 0 -38 3 -42 30 -6 37 -3 40 35 40 27 0 21 6 -51 53
-45 28 -82 58 -82 65 0 7 -16 13 -42 14 -90 5 -196 3 -244 -4z m63 -440 c4 -7
13 -28 19 -46 11 -29 8 -40 -22 -103 -40 -83 -110 -192 -150 -234 -16 -17 -43
-46 -59 -65 -36 -42 -129 -80 -148 -61 -7 8 -12 46 -12 100 0 78 4 94 32 152
59 119 195 246 278 260 22 4 43 7 47 8 4 0 10 -5 15 -11z"/>
<path d="M12998 2328 c-52 -7 -313 -109 -369 -144 -40 -25 -79 -69 -79 -90 0
-7 -20 -32 -45 -56 -63 -58 -108 -155 -152 -323 -30 -118 -36 -158 -37 -255
-1 -107 1 -119 27 -172 16 -32 50 -82 77 -111 l49 -54 -20 -20 -20 -20 73 -6
c52 -4 91 -14 138 -36 103 -49 143 -45 290 31 97 51 123 61 138 52 13 -8 22
-8 38 3 20 13 24 10 64 -42 87 -112 148 -153 238 -159 32 -2 69 -9 80 -15 19
-10 22 -9 22 8 0 10 6 21 14 24 26 10 27 106 2 213 -17 68 -28 159 -37 289
-14 227 -14 227 12 307 26 79 36 231 19 282 -18 55 -58 98 -89 96 -47 -3 -51
-1 -51 35 0 33 2 35 33 35 30 1 27 4 -50 53 -46 28 -83 58 -83 65 0 7 -16 13
-42 14 -88 4 -195 3 -240 -4z m59 -440 c6 -7 15 -28 21 -47 10 -28 9 -41 -8
-78 -62 -139 -224 -351 -281 -366 -16 -4 -29 -11 -29 -15 0 -4 -13 -9 -29 -10
-26 -2 -31 2 -41 33 -19 57 2 187 41 250 72 119 197 229 270 238 18 2 37 5 40
5 4 1 11 -4 16 -10z"/>
<path d="M2119 2245 c-72 -39 -125 -342 -87 -495 6 -25 10 -82 9 -128 -2 -93
12 -150 62 -245 32 -61 87 -113 110 -104 15 6 57 -28 80 -65 9 -14 41 -38 72
-53 49 -25 64 -27 128 -23 41 3 93 15 119 26 26 12 50 17 53 12 10 -16 -16
-140 -55 -265 -49 -158 -64 -243 -57 -319 7 -76 30 -131 70 -173 39 -42 79
-49 157 -29 34 9 75 16 91 16 19 0 29 5 29 15 0 9 11 46 24 84 13 37 27 92 31
122 4 29 14 72 22 94 23 66 44 174 53 275 4 52 19 160 33 240 14 80 30 211 35
292 8 126 13 154 37 205 23 48 27 71 27 133 -1 41 5 100 13 131 26 98 22 113
-42 181 -91 94 -131 106 -223 67 -54 -23 -97 -77 -123 -153 -8 -22 -31 -86
-51 -141 -19 -55 -42 -129 -51 -163 -9 -35 -33 -101 -54 -147 -22 -46 -42
-106 -46 -134 -9 -64 -28 -67 -78 -12 -42 47 -79 141 -76 196 1 22 1 99 0 171
-2 96 2 142 13 175 9 24 16 53 16 65 0 28 -29 84 -46 91 -8 3 -14 12 -14 20 0
13 -9 15 -44 10 -34 -5 -61 -1 -111 18 -75 29 -90 30 -126 10z m309 -167 c-6
-18 -28 -21 -28 -4 0 9 7 16 16 16 9 0 14 -5 12 -12z"/>
<path d="M10811 1350 c0 -8 6 -24 14 -34 11 -15 15 -16 15 -5 0 8 -7 24 -15
35 -11 14 -14 15 -14 4z"/>
</g>
</svg>
